<svg width="233" height="235" viewBox="0 0 233 235" fill="none" xmlns="http://www.w3.org/2000/svg">
    <path d="M125.382 10.1793C134.3 -0.561153 150.224 -2.02943 160.951 6.89985L223.889 59.2936C234.615 68.2228 236.082 84.1684 227.164 94.9088L118.425 225.877C109.507 236.617 93.5827 238.086 82.8563 229.156L19.918 176.763C9.19167 167.833 7.72533 151.888 16.6429 141.147L125.382 10.1793Z" fill="#3DB650"/>
    <path d="M116.93 8.81182C126.019 -1.78349 141.965 -2.99479 152.546 6.10629L214.634 59.5081C225.215 68.6091 226.425 84.5762 217.336 95.1715L106.504 224.369C97.4152 234.965 81.4691 236.176 70.8877 227.075L8.80023 173.673C-1.78114 164.572 -2.99085 148.605 6.09826 138.01L116.93 8.81182Z" fill="#0A721A"/>
    <path fill-rule="evenodd" clip-rule="evenodd" d="M93.6431 65.454C94.5685 64.0776 95.5751 62.7356 96.6635 61.4341C97.752 60.1327 98.8957 58.9036 100.088 57.7474L100.55 57.1956L100.612 57.2471C117.95 40.943 145.224 39.7034 164.061 55.2217C175.381 64.5464 181.269 77.9566 181.355 91.4966L195.391 74.7142C197.426 72.2803 201.064 71.945 203.517 73.9652C205.969 75.9854 206.307 79.5962 204.271 82.03L130.919 169.738C129.629 171.912 128.147 174.012 126.471 176.016C109.588 196.202 79.4129 198.984 59.073 182.228C47.6003 172.777 41.7071 159.129 41.7789 145.403L32.7794 156.163C30.7439 158.597 27.1057 158.932 24.6534 156.912C22.2011 154.892 21.8632 151.281 23.8987 148.847L93.6431 65.454ZM106.589 69.6106C118.922 54.8642 140.965 52.8324 155.823 65.0724C170.681 77.3125 172.728 99.1893 160.395 113.936C153.471 122.215 143.487 126.486 133.431 126.474C130.535 119.955 126.111 113.985 120.211 109.125C113.955 103.972 106.769 100.666 99.3258 99.147C97.1275 89.0812 99.447 78.1503 106.589 69.6106ZM85.6438 92.9533L80.5561 99.0366C82.3837 98.687 84.2297 98.443 86.0841 98.3056C85.8364 96.5314 85.6894 94.7442 85.6438 92.9533ZM137.05 139.144C138.72 139.02 140.384 138.81 142.033 138.514L137.474 143.965C137.415 142.352 137.273 140.743 137.05 139.144ZM124.533 138.445C126.669 148.627 124.281 159.645 117.068 168.269C104.495 183.302 82.0246 185.373 66.8778 172.896C51.7311 160.418 49.6441 138.116 62.2165 123.084C69.2075 114.724 79.2592 110.373 89.4103 110.302C92.2975 117.084 96.8211 123.298 102.923 128.325C109.382 133.645 116.832 136.996 124.533 138.445ZM115.934 121.787C114.28 120.831 112.683 119.727 111.162 118.474C109.891 117.427 108.714 116.31 107.631 115.132C109.285 116.095 110.883 117.202 112.406 118.457C113.674 119.502 114.85 120.615 115.934 121.787Z" fill="white"/>
    </svg>
    